<?xml version="1.0" encoding="utf-8"?>
<svg version="1.1" xmlns="http://www.w3.org/2000/svg" width="128" height="128" viewBox="24 1 132 132">
  <path d="M 90.807 18.446 C 109.628 17.009 137.371 20.058 144.057 37.71 C 146.362 43.797 148.592 56.813 143.434 64.033 C 137.6 72.201 124.122 74.239 124.122 74.239 C 124.122 74.239 130.244 81.494 129.504 85.971 C 128.694 90.872 126.658 93.427 123.164 95.428 C 108.638 103.748 73.331 101.664 73.331 101.664 L 62.491 116.901 L 60.491 98.901 C 55.291 96.501 40.419 88.823 36.091 79.34 C 30.999 68.184 30.669 52.753 37.514 42.578 C 48.398 26.397 68.008 20.186 90.807 18.446 Z" fill="#FAF9FA" stroke="#1A1E26" stroke-width="7" style="stroke-linejoin: round;"/>
  <rect x="101.706" y="41.32" width="21" height="19.5" rx="3" ry="4" fill="#65BE5E"/>
  <rect x="77.034" y="41.08" width="20.5" height="19.5" rx="2.5" ry="4" fill="#FABF1A"/>
  <rect x="53.365" y="41.277" width="19.5" height="19.4" rx="3" ry="4" fill="#F33564"/>
  <rect x="89.845" y="64.32" width="21" height="18.5" rx="3" ry="4" style="fill: rgb(218, 42, 202);"/>
  <rect x="65.173" y="64.234" width="20.5" height="18.6" rx="2.5" ry="4" fill="#3686E0"/>
</svg>
