<?xml version="1.0" encoding="utf-8"?>
<svg version="1.1" xmlns="http://www.w3.org/2000/svg" width="435" height="135" xmlns:bx="https://boxy-svg.com" viewBox="0 0 399.384 112.283">
  <defs>
    <bx:export>
      <bx:file format="svg" path="無題.svg"/>
    </bx:export>
  </defs>
  <path d="M 64.597 6.559 C 83.418 5.122 111.161 8.171 117.847 25.823 C 120.152 31.91 122.382 44.926 117.224 52.146 C 111.39 60.314 97.912 62.352 97.912 62.352 C 97.912 62.352 104.034 69.607 103.294 74.084 C 102.484 78.985 100.448 81.54 96.954 83.541 C 82.428 91.861 47.121 89.777 47.121 89.777 L 36.281 105.014 L 34.281 87.014 C 29.081 84.614 14.209 76.936 9.881 67.453 C 4.789 56.297 4.459 40.866 11.304 30.691 C 22.188 14.51 41.798 8.299 64.597 6.559 Z" fill="#FAF9FA" stroke="#1A1E26" stroke-width="7" style="stroke-linejoin: round;"/>
  <rect x="75.496" y="29.433" width="21" height="19.5" rx="3" ry="4" fill="#65BE5E"/>
  <rect x="50.824" y="29.193" width="20.5" height="19.5" rx="2.5" ry="4" fill="#FABF1A"/>
  <rect x="27.155" y="29.39" width="19.5" height="19.4" rx="3" ry="4" fill="#F33564"/>
  <rect x="63.635" y="52.433" width="21" height="18.5" rx="3" ry="4" style="fill: rgb(218, 42, 202);"/>
  <rect x="38.963" y="52.347" width="20.5" height="18.6" rx="2.5" ry="4" fill="#3686E0"/>
  <g transform="translate(130, 34) scale(0.957)">
    <g stroke-linecap="round" fill-rule="evenodd" stroke="#1A1E26" stroke-width="0.25mm" fill="#1A1E26">
      <path d="M 74 41.504 L 75 42.504 Q 76.45 43.704 78 43.704 L 81.45 43.704 Q 83.1 43.704 84.5 42.604 L 85.85 41.454 Q 87.15 40.254 87.35 38.604 L 91.3 7.804 Q 91.65 6.104 93.25 6.104 L 97.75 6.104 Q 99.3 6.104 99.5 7.804 L 99.5 37.504 Q 99.5 39.054 97.75 39.204 L 92.9 39.204 Q 92.15 39.204 91.65 39.704 Q 91.15 40.204 91.15 40.904 L 91.15 42.104 Q 91.15 42.804 91.65 43.304 Q 92.15 43.804 92.9 43.804 L 98.9 43.804 Q 100.5 43.804 101.9 42.604 L 102.9 41.604 Q 104.15 40.204 104.15 38.654 L 104.15 6.704 Q 104.15 5.154 102.9 3.754 L 101.9 2.754 Q 100.5 1.554 98.9 1.554 L 78 1.554 Q 76.45 1.554 75 2.754 L 74 3.754 Q 72.75 5.154 72.75 6.704 L 72.75 38.554 Q 72.75 40.104 74 41.504 Z M 42.7 1.904 L 47.5 15.554 Q 47.55 15.704 47.575 15.854 Q 47.6 16.004 47.6 16.154 Q 47.6 17.204 46.5 17.854 L 41 20.654 Q 40.2 21.054 39.55 21.604 Q 38.9 22.154 38.45 22.904 L 37.65 24.204 Q 36.7 25.754 36.7 27.354 L 36.7 38.454 Q 36.7 40.204 38 41.504 L 38.95 42.504 Q 39.55 43.154 40.35 43.429 Q 41.15 43.704 42.05 43.704 L 65.1 43.704 Q 66.95 43.704 66.95 41.904 L 66.95 40.904 A 1.781 1.781 0 0 0 66.45 39.629 Q 65.95 39.104 65.1 39.104 L 43 39.104 Q 41.35 39.104 41.35 37.554 L 41.35 27.104 Q 41.35 25.754 43 24.954 L 64.9 13.854 Q 66.45 12.904 66.45 11.354 L 66.45 9.654 Q 66.45 8.454 65.6 8.454 Q 65.25 8.454 64.85 8.704 L 53.85 14.254 Q 53.5 14.454 53 14.454 Q 52.1 14.454 51.65 13.404 L 47.4 1.654 Q 46.65 0.054 45.05 0.054 L 43.7 0.054 Q 42.45 0.054 42.45 1.104 Q 42.45 1.004 42.7 1.904 Z M 184.4 43.704 L 192.5 43.704 Q 193.3 43.704 194.075 43.429 Q 194.85 43.154 195.55 42.504 L 213.4 25.904 Q 213.9 25.454 213.9 25.154 Q 213.9 24.704 212.95 24.704 L 210.1 24.704 Q 208.4 24.704 207.05 25.904 L 193.75 37.904 Q 193.05 38.554 192.275 38.829 Q 191.5 39.104 190.7 39.104 L 189.05 39.104 Q 188.25 39.104 187.775 38.654 Q 187.3 38.204 187.3 37.354 L 187.3 1.904 Q 187.3 1.104 186.85 0.629 Q 186.4 0.154 185.55 0.154 L 184.45 0.154 Q 183.65 0.154 183.175 0.604 Q 182.7 1.054 182.7 1.904 L 182.7 41.954 Q 182.7 42.654 183.2 43.179 Q 183.7 43.704 184.4 43.704 Z M 120.4 41.504 L 121.4 42.454 Q 122.1 43.154 122.85 43.429 Q 123.6 43.704 124.4 43.704 L 128.3 43.704 Q 129.1 43.704 129.85 43.429 Q 130.6 43.154 131.3 42.454 L 132.3 41.504 Q 133 40.804 133.275 40.054 Q 133.55 39.304 133.55 38.504 L 133.55 32.454 Q 133.55 30.754 135.3 30.754 L 138.75 30.754 Q 139.55 30.754 140.025 30.304 Q 140.5 29.854 140.5 29.004 L 140.5 27.904 Q 140.5 26.204 138.75 26.204 L 135.3 26.204 Q 134.5 26.204 134.025 25.754 Q 133.55 25.304 133.55 24.454 L 133.55 14.954 Q 133.55 14.154 134 13.679 Q 134.45 13.204 135.3 13.204 L 138.75 13.204 Q 139.55 13.204 140.025 12.779 Q 140.5 12.354 140.5 11.504 L 140.5 10.404 Q 140.5 8.704 138.75 8.704 L 135.3 8.704 Q 134.5 8.704 134.025 8.254 Q 133.55 7.804 133.55 6.954 L 133.55 1.804 Q 133.55 1.004 133.1 0.529 Q 132.65 0.054 131.8 0.054 L 130.7 0.054 Q 129.9 0.054 129.425 0.504 Q 128.95 0.954 128.95 1.804 L 128.95 6.954 Q 128.95 7.754 128.5 8.229 Q 128.05 8.704 127.2 8.704 L 120.25 8.704 Q 119.45 8.704 118.975 9.129 Q 118.5 9.554 118.5 10.404 L 118.5 11.504 Q 118.5 13.204 120.25 13.204 L 127.2 13.204 Q 128 13.204 128.475 13.654 Q 128.95 14.104 128.95 14.954 L 128.95 24.454 Q 128.95 25.254 128.5 25.729 Q 128.05 26.204 127.2 26.204 L 124.4 26.204 Q 123.6 26.204 122.85 26.454 Q 122.1 26.704 121.4 27.404 L 120.4 28.404 Q 119.15 29.654 119.15 31.354 L 119.15 38.504 Q 119.15 39.304 119.425 40.054 Q 119.7 40.804 120.4 41.504 Z M 239.2 9.754 L 234.25 37.404 Q 233.75 39.254 232.15 39.254 L 219.8 39.254 Q 218.05 39.254 218.05 41.104 L 218.05 41.854 Q 218.05 43.704 219.8 43.704 L 232.4 43.704 Q 234 43.704 235.5 42.504 L 236.55 41.554 Q 237.9 40.204 238.25 38.454 L 243.5 9.754 L 243.55 9.304 Q 243.55 8.754 243.225 8.329 Q 242.9 7.904 242.1 7.904 L 241.3 7.904 Q 239.7 7.904 239.2 9.754 Z M 169.3 0.504 L 168.85 0.504 Q 168.1 0.504 167.575 1.004 Q 167.05 1.504 167.05 2.254 L 167.05 38.554 Q 167.05 40.304 168.3 41.554 L 169.3 42.554 Q 170.55 43.804 172.3 43.804 L 175.1 43.804 Q 175.8 43.804 176.3 43.279 Q 176.8 42.754 176.8 42.054 L 176.8 40.904 Q 176.8 40.154 176.3 39.654 Q 175.8 39.154 175.1 39.154 L 173.45 39.154 Q 172.7 39.154 172.175 38.629 Q 171.65 38.104 171.65 37.354 L 171.65 8.254 Q 170.05 7.854 169.075 6.629 Q 168.1 5.404 168.1 3.704 Q 168.1 1.854 169.3 0.504 Z M 147.25 43.804 L 149.55 43.804 Q 151.3 43.804 152.55 42.554 L 153.55 41.554 Q 154.8 40.304 154.8 38.554 L 154.8 2.254 Q 154.8 1.504 154.275 1.004 A 1.781 1.781 0 0 0 153 0.504 L 151.95 0.504 Q 151.2 0.504 150.7 1.004 Q 150.2 1.504 150.2 2.254 L 150.2 37.354 Q 150.2 38.104 149.675 38.629 Q 149.15 39.154 148.4 39.154 L 147.25 39.154 Q 146.55 39.154 146.05 39.654 Q 145.55 40.154 145.55 40.904 L 145.55 42.054 Q 145.55 42.754 146.05 43.279 Q 146.55 43.804 147.25 43.804 Z M 110.5 41.204 L 111.65 42.404 Q 112.3 43.054 113.025 43.329 Q 113.75 43.604 114.5 43.604 Q 115.35 43.604 115.875 43.179 Q 116.4 42.754 116.4 41.904 L 116.4 40.854 A 2.025 2.025 0 0 0 116.025 39.604 Q 115.65 39.104 115.1 39.104 Q 113.9 39.104 113.9 37.404 L 113.9 1.854 Q 113.9 1.154 113.375 0.654 Q 112.85 0.154 112.1 0.154 L 111.05 0.154 Q 110.3 0.154 109.8 0.654 Q 109.3 1.154 109.3 1.854 L 109.3 38.304 A 4.107 4.107 0 0 0 109.625 39.854 Q 109.95 40.654 110.5 41.204 Z M 253.6 43.804 L 254.7 43.804 Q 255.45 43.804 255.975 43.279 A 1.679 1.679 0 0 0 256.5 42.054 L 256.5 1.854 Q 256.5 1.154 255.975 0.654 A 1.781 1.781 0 0 0 254.7 0.154 L 253.6 0.154 Q 252.9 0.154 252.375 0.654 Q 251.85 1.154 251.85 1.854 L 251.85 42.054 Q 251.85 42.754 252.375 43.279 A 1.679 1.679 0 0 0 253.6 43.804 Z M 1.25 41.454 L 2.25 42.454 Q 3.65 43.704 5.25 43.704 L 29 43.704 Q 29.7 43.704 30.225 43.179 Q 30.75 42.654 30.75 41.954 L 30.75 40.754 Q 30.75 40.054 30.225 39.529 Q 29.7 39.004 29 39.004 L 6.4 39.004 Q 5.7 39.004 5.175 38.479 A 1.909 1.909 0 0 1 4.871 38.088 A 1.632 1.632 0 0 1 4.65 37.254 L 4.65 27.954 Q 4.65 27.254 4.15 26.729 Q 3.65 26.204 2.9 26.204 L 1.8 26.204 Q 1.05 26.204 0.525 26.729 Q 0 27.254 0 27.954 L 0 38.454 Q 0 40.054 1.25 41.454 Z M 77.4 37.454 L 77.4 7.804 Q 77.4 6.254 79.15 6.104 L 85 6.104 Q 86.55 6.104 86.55 7.704 L 82.85 37.454 Q 82.5 39.154 80.9 39.154 L 79.15 39.154 Q 77.6 39.154 77.4 37.454 Z M 258.4 12.654 L 271.8 33.554 Q 272.2 34.154 272.975 34.604 Q 273.75 35.054 274.45 35.054 L 276.05 35.054 Q 276.75 35.054 277.25 34.529 Q 277.75 34.004 277.75 33.254 L 277.75 31.804 Q 277.75 30.954 277.375 30.404 Q 277 29.854 276.3 29.854 Q 275.5 29.854 274.875 29.354 Q 274.25 28.854 273.75 28.054 L 263.9 12.654 Q 263.5 12.054 262.675 11.629 Q 261.85 11.204 261.15 11.204 L 259.15 11.204 A 0.793 0.793 0 0 0 258.15 11.954 Q 258.25 12.354 258.4 12.654 Z M 2.8 6.004 L 27.75 6.004 Q 28.45 6.004 28.975 5.479 Q 29.5 4.954 29.5 4.254 L 29.5 3.054 Q 29.5 2.354 28.975 1.829 Q 28.45 1.304 27.75 1.304 L 2.8 1.304 Q 2.1 1.304 1.575 1.829 Q 1.05 2.354 1.05 3.054 L 1.05 4.254 Q 1.05 4.954 1.575 5.479 Q 2.1 6.004 2.8 6.004 Z M 218.15 13.054 L 219.25 28.954 Q 219.6 30.804 221.15 30.804 L 223.95 30.804 Q 224.65 30.804 225.125 30.329 Q 225.6 29.854 225.6 29.104 L 225.6 28.354 Q 225.6 27.704 225.225 27.229 Q 224.85 26.754 224.25 26.754 Q 223.2 26.754 223.05 24.804 L 222.3 13.354 Q 222 11.504 220.4 11.504 L 219.75 11.504 Q 218.2 11.504 218.15 13.054 Z M 226.65 9.454 L 227.75 25.204 Q 228.1 27.054 229.65 27.054 L 232.45 27.054 Q 233.15 27.054 233.625 26.579 Q 234.1 26.104 234.1 25.354 L 234.1 24.604 Q 234.1 23.954 233.725 23.479 Q 233.35 23.004 232.75 23.004 Q 231.7 23.004 231.55 21.054 L 230.8 9.604 Q 230.5 7.754 228.9 7.754 L 228.25 7.754 Q 226.7 7.754 226.65 9.454 Z M 123.75 37.454 L 123.75 32.454 Q 123.75 30.754 125.5 30.754 L 127.2 30.754 Q 128.95 30.754 128.95 32.454 L 128.95 37.454 Q 128.95 39.154 127.2 39.154 L 125.5 39.154 Q 124.7 39.154 124.225 38.729 Q 123.75 38.304 123.75 37.454 Z M 170.35 6.454 Q 171.4 7.354 172.85 7.354 Q 174.45 7.354 175.5 6.254 Q 176.55 5.154 176.55 3.704 Q 176.55 2.254 175.5 1.129 Q 174.45 0.004 172.85 0.004 Q 171.15 0.004 170.15 1.129 Q 169.15 2.254 169.15 3.704 Q 169.15 5.304 170.35 6.454 Z M 172.85 5.454 Q 172.05 5.454 171.575 4.904 Q 171.1 4.354 171.1 3.704 Q 171.1 3.054 171.575 2.529 Q 172.05 2.004 172.85 2.004 Q 173.55 2.004 174.05 2.529 Q 174.55 3.054 174.55 3.704 Q 174.55 4.354 174 4.904 Q 173.45 5.454 172.85 5.454 Z"/>
    </g>
  </g>
</svg>