<?xml version="1.0" encoding="utf-8"?>
<svg version="1.1" xmlns="http://www.w3.org/2000/svg" width="435" height="135" xmlns:bx="https://boxy-svg.com" viewBox="0 0 399.384 112.283">
  <defs>
    <bx:export>
      <bx:file format="svg" path="無題.svg"/>
    </bx:export>
  </defs>
  <path d="M 64.597 6.559 C 83.418 5.122 111.161 8.171 117.847 25.823 C 120.152 31.91 122.382 44.926 117.224 52.146 C 111.39 60.314 97.912 62.352 97.912 62.352 C 97.912 62.352 104.034 69.607 103.294 74.084 C 102.484 78.985 100.448 81.54 96.954 83.541 C 82.428 91.861 47.121 89.777 47.121 89.777 L 36.281 105.014 L 34.281 87.014 C 29.081 84.614 14.209 76.936 9.881 67.453 C 4.789 56.297 4.459 40.866 11.304 30.691 C 22.188 14.51 41.798 8.299 64.597 6.559 Z" fill="#FAF9FA" stroke="#1A1E26" stroke-width="7" style="stroke-linejoin: round;"/>
  <path d="M 236.272 44.132 C 236.272 44.132 245.29 44.113 243.79 44.113 L 243.79 50.113 L 236.79 50.113 C 236.79 54.113 236.674 59.743 236.674 59.743 C 236.674 59.743 241.877 60.038 243.877 61.038 C 243.377 63.038 236.579 64.352 236.579 64.352 C 236.579 64.352 236.796 71.3 234.413 73.162 C 230.441 76.266 222.916 76.549 219.29 73.113 C 218.346 72.218 217.683 70.933 217.348 69.548 C 216.921 67.784 217.026 65.86 217.759 64.375 C 219.761 60.321 223.773 59.213 229.773 59.213 L 229.79 50.018 L 218.79 50.113 L 218.79 44.113 L 229.79 44.113 L 229.79 36.113 L 236.174 35.545 L 236.272 44.132 Z M 225.025 64.587 C 223.771 65.613 223.136 68.105 224.15 69.369 C 225.128 70.589 227.632 70.496 228.847 69.507 C 230.305 68.32 229.934 64.08 229.934 64.08 C 229.934 64.08 226.042 63.755 225.025 64.587 Z" fill="#1D2129"/>
  <path d="M 173.79 36.113 L 180.79 36.113 C 180.79 36.113 182.79 44.113 182.79 49.113 C 186.79 47.613 193.79 46.113 197.79 46.113 L 198.79 52.113 C 192.79 53.113 182.092 53.162 177.676 59.74 C 176.747 61.124 175.798 65.245 177.467 66.921 C 182.49 71.965 193.79 67.913 198.79 68.113 L 198.79 75.113 C 191.79 75.213 180.249 78.12 172.687 72.558 C 170.258 70.771 168.868 66.695 168.984 63.682 C 169.151 59.361 175.654 50.877 175.654 50.877 C 175.654 50.877 174.59 42.113 173.79 36.113 Z" fill="#1A1F27"/>
  <path d="M 296.79 37.113 L 303.79 37.113 C 304.79 38.113 304.79 52.113 304.79 67.113 C 307.419 66.061 312.768 66.515 315.735 63.799 C 318.411 61.351 321.797 54.58 321.797 54.58 L 328.79 54.113 C 328.79 54.113 325.084 65.263 320.713 68.915 C 316.537 72.404 312.79 73.446 304.59 74.646 C 301.79 74.746 296.727 74.564 296.727 74.564 C 296.727 74.564 296.79 47.113 296.79 37.113 Z" fill="#191E27"/>
  <path d="M 367.79 37.113 L 375.79 37.113 L 375.79 51.113 C 381.79 52.113 391.79 56.113 395.79 57.113 L 394.79 64.113 C 394.79 64.113 381.79 61.113 375.79 59.113 L 375.79 76.113 L 367.79 76.113 L 367.79 37.113 Z" fill="#1E232C"/>
  <rect x="75.496" y="29.433" width="21" height="19.5" rx="3" ry="4" fill="#65BE5E"/>
  <rect x="50.824" y="29.193" width="20.5" height="19.5" rx="2.5" ry="4" fill="#FABF1A"/>
  <rect x="27.155" y="29.39" width="19.5" height="19.4" rx="3" ry="4" fill="#F33564"/>
  <rect x="63.635" y="52.433" width="21" height="18.5" rx="3" ry="4" style="fill: rgb(218, 42, 202);"/>
  <rect x="38.963" y="52.347" width="20.5" height="18.6" rx="2.5" ry="4" fill="#3686E0"/>
  <path d="M 278.79 39.113 L 288.79 73.113 L 281.79 74.113 L 270.79 39.113 L 278.79 39.113 Z" fill="#1E232A"/>
  <path d="M 256.79 39.113 L 265.79 39.113 L 257.79 73.113 C 257.79 73.113 251.79 74.113 249.79 72.113 C 250.79 68.113 256.29 47.113 256.79 39.113 Z" fill="#1E232C"/>
  <path d="M 207.79 37.113 L 214.79 37.113 L 214.79 74.113 L 206.79 74.113 L 207.79 37.113 Z" fill="#1F242B"/>
  <path d="M 130.79 57.113 C 132.79 57.413 137.432 56.882 138.432 57.082 C 138.432 59.082 138.7 63.291 140.809 65.126 C 145.89 69.546 154.79 68.113 160.79 68.113 L 160.79 75.113 C 152.79 75.413 141.51 76.564 134.948 70.802 C 131.365 67.655 129.29 60.113 130.79 57.113 Z" fill="#181C25"/>
  <path d="M 354.79 50.113 L 361.79 50.113 C 362.29 56.713 360.227 63.801 356.07 68.829 C 352.772 72.819 348.837 75.08 342.337 76.08 L 339.79 72.113 C 343.79 69.113 349.292 67.902 352.021 63.796 C 354.597 59.921 354.29 54.113 354.79 50.113 Z" fill="#171D26"/>
  <path d="M 134.474 37.999 L 159.774 37.999 L 159.774 44.999 L 130.774 44.999 C 130.774 40.999 134.474 37.999 134.474 37.999 Z" fill="#121721"/>
  <circle cx="286.79" cy="39.513" r="4.392" stroke="#1A1E26" style="stroke-width: 4px; fill: none;"/>
  <path d="M 342.79 49.113 L 348.79 49.113 L 349.79 61.113 L 344.79 61.113 L 342.79 49.113 Z" fill="#181D26"/>
  <path d="M 332.752 52.05 L 338.752 51.15 L 341.242 61.611 L 335.752 62.05 L 332.752 52.05 Z" fill="#1E2229"/>
  <rect x="243.79" y="34.113" width="3" height="7" rx="1" fill="#22252B"/>
  <rect x="238.79" y="34.113" width="3" height="7" rx="1" fill="#090A11"/>
</svg>